<svg width="615.513" height="75.602" viewBox="0 0 615.513 75.602" xmlns="http://www.w3.org/2000/svg">
    <g id="svgGroup" stroke-linecap="round" fill-rule="evenodd" font-size="9pt" stroke="#000"
        stroke-width="0.25mm" fill="#000" style="stroke:#000;stroke-width:0.25mm;fill:#000">
        <path
            d="M 95.556 17.427 A 0.662 0.662 0 0 0 95.38 17.1 Q 92.38 16.1 88.73 15.05 A 101.586 101.586 0 0 0 87.581 14.727 A 113.508 113.508 0 0 0 81.08 13.15 Q 77.08 12.3 72.88 11.75 Q 68.68 11.2 64.58 11.2 A 30.301 30.301 0 0 0 58.469 11.787 A 21.252 21.252 0 0 0 48.78 16.4 A 19.898 19.898 0 0 0 43.022 24.824 A 29.138 29.138 0 0 0 41.48 31.4 A 1.428 1.428 0 0 0 41.506 31.511 Q 41.621 31.912 41.93 32 Q 42.28 32.1 42.48 31.6 Q 43.68 22.7 48.63 18.35 Q 53.58 14 61.08 14 A 62.582 62.582 0 0 1 65.258 14.142 A 72.531 72.531 0 0 1 74.83 15.45 Q 81.98 16.9 88.68 19.1 Q 79.38 26.4 72.33 33.3 Q 65.28 40.2 59.58 46.2 Q 57.72 46.253 56.073 46.292 A 500.782 500.782 0 0 1 53.33 46.35 Q 50.58 46.4 49.38 46.5 A 5.744 5.744 0 0 0 48.722 46.623 A 6.984 6.984 0 0 0 47.73 46.95 A 9.133 9.133 0 0 0 47.096 47.239 A 7.263 7.263 0 0 0 46.23 47.75 Q 45.58 48.2 45.28 48.6 A 1.006 1.006 0 0 0 45.259 48.628 Q 45.032 48.954 45.366 49.07 A 0.872 0.872 0 0 0 45.48 49.1 A 165.88 165.88 0 0 1 45.836 49.055 Q 51.202 48.384 57.88 47.9 Q 55.28 50.7 52.93 53.15 A 105.553 105.553 0 0 1 51.188 54.924 A 86.603 86.603 0 0 1 48.38 57.6 A 63.309 63.309 0 0 1 44.877 60.669 A 53.311 53.311 0 0 1 33.73 67.7 A 42.464 42.464 0 0 1 29.744 69.317 A 34.54 34.54 0 0 1 18.38 71.3 A 28.698 28.698 0 0 1 16.219 71.222 Q 14.235 71.072 12.551 70.636 A 14.027 14.027 0 0 1 8.98 69.2 A 15.28 15.28 0 0 1 6.575 67.485 A 11.034 11.034 0 0 1 3.88 64 A 11.228 11.228 0 0 1 2.726 59.054 A 11.828 11.828 0 0 1 2.83 57.5 Q 3.28 54.1 5.68 51.5 A 2.098 2.098 0 0 0 5.694 51.377 Q 5.714 51.132 5.665 50.949 A 0.647 0.647 0 0 0 5.38 50.55 Q 4.98 50.3 4.68 50.5 Q 1.38 54.4 0.43 58.85 A 20.797 20.797 0 0 0 0.222 59.97 Q -0.012 61.461 0.001 62.863 A 14.285 14.285 0 0 0 0.63 67 Q 1.78 70.7 4.93 73.15 A 10.243 10.243 0 0 0 5.839 73.782 Q 7.53 74.825 9.697 75.27 A 17.324 17.324 0 0 0 13.18 75.6 A 48.569 48.569 0 0 0 15.214 75.558 A 41.38 41.38 0 0 0 31.73 71.5 A 61.947 61.947 0 0 0 39.037 67.3 A 76.71 76.71 0 0 0 48.18 60.1 A 117.58 117.58 0 0 0 50.007 58.426 A 138.859 138.859 0 0 0 54.13 54.4 Q 57.18 51.3 60.48 47.8 Q 64.88 47.6 69.43 47.5 Q 73.98 47.4 78.68 47.4 A 84.457 84.457 0 0 0 78.462 48.437 A 76.317 76.317 0 0 0 76.88 63.7 Q 76.88 68.9 78.63 72.25 Q 80.38 75.6 83.68 75.6 A 3.731 3.731 0 0 0 84.337 75.54 Q 85.266 75.374 86.33 74.75 Q 87.78 73.9 89.28 72.55 A 25.258 25.258 0 0 0 89.373 72.466 A 27.249 27.249 0 0 0 92.13 69.55 A 29.334 29.334 0 0 0 92.624 68.93 A 26.007 26.007 0 0 0 94.48 66.2 A 0.986 0.986 0 0 0 94.513 66.128 Q 94.62 65.862 94.484 65.694 A 0.458 0.458 0 0 0 94.38 65.6 A 0.667 0.667 0 0 0 94.272 65.541 Q 94.089 65.463 93.906 65.534 A 0.651 0.651 0 0 0 93.78 65.6 Q 91.641 68.838 89.435 70.204 A 6.126 6.126 0 0 1 86.18 71.2 Q 84.243 71.2 83.064 70.018 A 4.937 4.937 0 0 1 82.08 68.55 A 8.698 8.698 0 0 1 82.025 68.427 Q 80.88 65.79 80.88 61.1 Q 80.88 54.7 81.88 48.6 Q 82.88 42.5 84.73 37 A 66.603 66.603 0 0 1 85.512 34.801 A 58.273 58.273 0 0 1 89.18 26.85 A 48.925 48.925 0 0 1 90.265 25.005 A 42.543 42.543 0 0 1 95.08 18.6 A 4.388 4.388 0 0 0 95.27 18.357 Q 95.58 17.926 95.58 17.65 A 0.992 0.992 0 0 0 95.556 17.427 Z M 78.98 46.1 Q 80.68 38.8 83.68 31.85 Q 86.68 24.9 90.88 19.2 A 241.266 241.266 0 0 0 81.064 27.543 A 194.351 194.351 0 0 0 75.08 33.15 Q 68.08 40 62.08 46.2 Q 66.88 46.1 71.58 46.1 L 78.98 46.1 Z"
            id="0" vector-effect="non-scaling-stroke" />
        <path
            d="M 121.626 54.155 A 18.42 18.42 0 0 0 121.68 52.8 A 6.015 6.015 0 0 0 121.652 52.209 Q 121.434 50 119.48 50 A 3.792 3.792 0 0 0 118.25 50.217 Q 117.691 50.407 117.106 50.767 A 9.094 9.094 0 0 0 116.03 51.55 Q 114.18 53.1 112.68 55 A 0.986 0.986 0 0 0 112.659 55.044 Q 112.535 55.326 112.67 55.53 A 0.558 0.558 0 0 0 112.78 55.65 A 0.705 0.705 0 0 0 112.822 55.683 Q 113.052 55.847 113.339 55.758 A 0.942 0.942 0 0 0 113.48 55.7 A 14.591 14.591 0 0 1 113.823 55.261 A 12.806 12.806 0 0 1 115.43 53.6 A 6.959 6.959 0 0 1 115.563 53.489 Q 116.159 53.003 116.672 52.816 A 1.779 1.779 0 0 1 117.28 52.7 A 0.913 0.913 0 0 1 118.17 53.296 Q 118.502 54.037 118.28 55.7 Q 117.98 57.7 117.48 60.1 A 54.196 54.196 0 0 1 117.351 60.702 A 59.488 59.488 0 0 1 116.23 65 Q 115.48 67.5 114.68 69.95 A 61.035 61.035 0 0 1 114.066 71.739 A 50.965 50.965 0 0 1 112.98 74.5 Q 112.38 75.6 113.48 75.6 A 5.117 5.117 0 0 0 113.956 75.577 Q 114.279 75.546 114.648 75.477 A 11.531 11.531 0 0 0 115.43 75.3 Q 116.58 75 116.78 74 A 134.668 134.668 0 0 1 117.002 73.184 Q 119.404 64.468 122.08 59.45 A 21.853 21.853 0 0 1 122.328 58.998 Q 123.751 56.474 125.352 55.278 A 4.984 4.984 0 0 1 128.38 54.2 A 5.041 5.041 0 0 1 128.972 54.233 Q 130.146 54.372 130.513 55.107 A 1.756 1.756 0 0 1 130.68 55.9 A 1.526 1.526 0 0 0 130.68 55.94 Q 130.697 56.589 131.28 56.2 A 3.191 3.191 0 0 0 131.307 56.173 Q 131.706 55.764 132.105 55.068 A 11.146 11.146 0 0 0 132.48 54.35 Q 132.883 53.51 133.015 52.874 A 2.834 2.834 0 0 0 133.08 52.3 A 2.566 2.566 0 0 0 133.075 52.148 Q 133.016 51.158 132.18 50.6 Q 131.28 50 130.18 50 Q 128.255 50 126.519 51.3 A 10.075 10.075 0 0 0 124.98 52.75 Q 122.58 55.5 120.58 60.3 Q 121.08 58.3 121.38 56.3 Q 121.553 55.144 121.626 54.155 Z"
            id="2" vector-effect="non-scaling-stroke" />
        <path
            d="M 149.061 56.388 A 3.548 3.548 0 0 0 149.68 54.4 A 4.065 4.065 0 0 0 149.268 52.598 A 4.886 4.886 0 0 0 148.38 51.35 A 4.423 4.423 0 0 0 147.152 50.439 A 4.389 4.389 0 0 0 145.18 50 A 7.399 7.399 0 0 0 142.411 50.539 A 9.221 9.221 0 0 0 140.23 51.8 A 16.216 16.216 0 0 0 138.478 53.359 A 19.255 19.255 0 0 0 136.08 56.4 A 25.067 25.067 0 0 0 135.857 56.752 A 26.879 26.879 0 0 0 133.18 62.55 A 23.708 23.708 0 0 0 132.468 65.214 A 18.463 18.463 0 0 0 132.08 68.9 A 11.803 11.803 0 0 0 132.119 69.88 Q 132.205 70.912 132.479 71.761 A 5.401 5.401 0 0 0 133.73 73.9 A 5.392 5.392 0 0 0 135.955 75.298 A 6.498 6.498 0 0 0 137.98 75.6 Q 140.78 75.6 143.33 73.95 A 18.16 18.16 0 0 0 143.567 73.794 A 16.007 16.007 0 0 0 147.58 70 A 1.225 1.225 0 0 0 147.598 69.963 Q 147.77 69.586 147.58 69.3 A 0.526 0.526 0 0 0 147.544 69.252 Q 147.375 69.053 147.086 69.155 A 0.928 0.928 0 0 0 146.98 69.2 Q 145.58 70.9 143.83 71.9 Q 142.08 72.9 140.08 72.9 A 4.531 4.531 0 0 1 139.854 72.895 Q 138.778 72.841 137.976 72.269 A 3.881 3.881 0 0 1 136.98 71.2 A 6.053 6.053 0 0 1 136.97 71.184 Q 135.88 69.489 135.88 67 Q 135.88 65.7 135.93 64.6 Q 135.98 63.5 136.08 62.4 A 94.718 94.718 0 0 0 137.414 62.044 A 84.161 84.161 0 0 0 141.23 60.9 A 37.168 37.168 0 0 0 143.406 60.117 A 27.809 27.809 0 0 0 145.58 59.15 A 14.825 14.825 0 0 0 145.981 58.942 Q 146.748 58.529 147.373 58.07 A 8.262 8.262 0 0 0 148.58 57 A 4.916 4.916 0 0 0 149.061 56.388 Z M 143.08 52.6 A 5.057 5.057 0 0 0 139.851 53.773 A 7.333 7.333 0 0 0 138.98 54.6 Q 137.215 56.561 136.412 60.731 A 26.865 26.865 0 0 0 136.38 60.9 Q 141.18 60.2 143.43 58.85 Q 145.68 57.5 145.68 55.8 A 4.592 4.592 0 0 0 145.573 54.783 A 3.219 3.219 0 0 0 144.98 53.5 A 2.239 2.239 0 0 0 143.345 52.612 A 2.988 2.988 0 0 0 143.08 52.6 Z"
            id="3" vector-effect="non-scaling-stroke" />
        <path
            d="M 185.28 54.6 A 4.356 4.356 0 0 0 185.223 53.86 Q 184.993 52.535 183.84 52.501 A 2.078 2.078 0 0 0 183.78 52.5 Q 182.28 52.5 180.48 54 Q 178.68 55.5 176.73 58.3 Q 175.054 60.706 173.378 64.036 A 70.654 70.654 0 0 0 172.83 65.15 Q 170.88 69.2 169.08 74.3 A 1.258 1.258 0 0 1 168.718 74.837 Q 168.455 75.075 168.03 75.25 A 4.78 4.78 0 0 1 167.115 75.528 A 3.878 3.878 0 0 1 166.38 75.6 Q 165.213 75.6 165.464 74.749 A 1.493 1.493 0 0 1 165.48 74.7 Q 166.08 72.9 167.13 70.2 Q 168.18 67.5 169.13 64.65 Q 170.08 61.8 170.78 59.3 A 28.934 28.934 0 0 0 171.118 57.981 Q 171.413 56.699 171.467 55.793 A 6.534 6.534 0 0 0 171.48 55.4 Q 171.48 53.545 170.733 52.919 A 1.433 1.433 0 0 0 169.78 52.6 A 3.424 3.424 0 0 0 168.183 53.056 Q 166.246 54.087 163.726 57.453 A 41.246 41.246 0 0 0 163.18 58.2 A 39.326 39.326 0 0 0 160.477 62.629 Q 157.942 67.41 155.58 74.3 A 1.479 1.479 0 0 1 155.102 74.98 A 2.219 2.219 0 0 1 154.68 75.25 Q 153.98 75.6 153.18 75.6 Q 152.68 75.6 152.38 75.4 Q 152.113 75.222 152.242 74.806 A 1.425 1.425 0 0 1 152.28 74.7 Q 153.08 72.5 153.98 69.85 Q 154.88 67.2 155.78 64.5 Q 156.68 61.8 157.43 59.2 Q 158.18 56.6 158.68 54.3 Q 159.18 52.5 158.18 52.5 Q 157.38 52.5 156.28 53.6 A 19.858 19.858 0 0 0 155.077 54.923 A 25.971 25.971 0 0 0 154.08 56.2 Q 153.794 56.391 153.508 56.172 A 0.838 0.838 0 0 1 153.48 56.15 A 0.671 0.671 0 0 1 153.389 56.06 Q 153.221 55.855 153.369 55.617 A 0.644 0.644 0 0 1 153.38 55.6 Q 154.88 53.5 156.73 51.75 Q 158.109 50.446 159.516 50.114 A 4.183 4.183 0 0 1 160.48 50 Q 161.78 50 162.13 51 A 3.364 3.364 0 0 1 162.3 51.794 Q 162.347 52.286 162.274 52.851 A 6.649 6.649 0 0 1 162.18 53.4 Q 161.68 55.6 161.23 57.45 A 33.91 33.91 0 0 1 160.251 60.726 A 37.277 37.277 0 0 1 160.08 61.2 Q 162.68 56.2 165.83 53.1 Q 168.98 50 172.08 50 A 2.593 2.593 0 0 1 173.098 50.195 A 2.445 2.445 0 0 1 174.03 50.9 Q 174.663 51.66 174.761 52.917 A 6.164 6.164 0 0 1 174.78 53.4 Q 174.78 55.5 174.38 57.6 Q 173.98 59.7 173.18 61.9 A 42.86 42.86 0 0 1 175.493 57.991 Q 176.731 56.145 178.037 54.696 A 21.477 21.477 0 0 1 179.63 53.1 A 15.187 15.187 0 0 1 181.888 51.4 Q 183.258 50.569 184.62 50.231 A 7.705 7.705 0 0 1 186.48 50 A 2.459 2.459 0 0 1 187.423 50.176 A 2.287 2.287 0 0 1 188.28 50.8 A 2.754 2.754 0 0 1 188.895 52.057 A 3.99 3.99 0 0 1 188.98 52.9 Q 188.98 54.588 188.321 56.583 A 17.081 17.081 0 0 1 188.23 56.85 Q 187.48 59 186.58 61.3 Q 185.68 63.6 184.93 65.85 A 15.308 15.308 0 0 0 184.356 68.104 A 11.819 11.819 0 0 0 184.18 70.1 Q 184.18 71.731 184.818 72.298 A 1.249 1.249 0 0 0 185.68 72.6 A 2.301 2.301 0 0 0 186.644 72.354 Q 187.91 71.761 189.692 69.748 A 28.308 28.308 0 0 0 190.08 69.3 A 0.326 0.326 0 0 1 190.138 69.253 Q 190.302 69.152 190.497 69.363 A 0.973 0.973 0 0 1 190.53 69.4 Q 190.773 69.692 190.59 70.079 A 1.09 1.09 0 0 1 190.58 70.1 A 16.145 16.145 0 0 1 189.997 70.829 Q 189.586 71.316 189.08 71.85 Q 188.18 72.8 187.23 73.65 Q 186.28 74.5 185.18 75.05 A 5.692 5.692 0 0 1 184.236 75.426 A 4.105 4.105 0 0 1 183.08 75.6 A 1.909 1.909 0 0 1 181.253 74.466 Q 180.829 73.622 180.785 72.15 A 11.693 11.693 0 0 1 180.78 71.8 A 17.484 17.484 0 0 1 181.395 67.256 A 19.522 19.522 0 0 1 181.48 66.95 A 60.047 60.047 0 0 1 182.924 62.532 A 55.119 55.119 0 0 1 183.03 62.25 Q 183.88 60 184.58 58 A 15.914 15.914 0 0 0 184.978 56.696 Q 185.28 55.519 185.28 54.6 Z"
            id="4" vector-effect="non-scaling-stroke" />
        <path
            d="M 196.096 57.046 A 0.496 0.496 0 0 0 196.18 57 Q 196.98 56.2 198.63 54.95 A 312.905 312.905 0 0 1 198.793 54.827 Q 200.335 53.66 201.38 52.9 Q 200.18 54.7 198.93 57.2 Q 197.68 59.7 196.68 62.4 A 52.824 52.824 0 0 0 196.664 62.442 A 49.019 49.019 0 0 0 195.03 67.75 A 29.161 29.161 0 0 0 194.751 68.999 Q 194.564 69.939 194.471 70.77 A 13.827 13.827 0 0 0 194.38 72.3 Q 194.38 74.756 195.819 75.384 A 2.882 2.882 0 0 0 196.98 75.6 A 4.098 4.098 0 0 0 198.339 75.356 Q 198.973 75.134 199.635 74.71 A 9.997 9.997 0 0 0 200.83 73.8 Q 202.88 72 204.68 69.8 A 0.98 0.98 0 0 0 204.686 69.789 Q 204.875 69.396 204.58 69.1 A 1.147 1.147 0 0 0 204.539 69.062 Q 204.266 68.814 204.08 69 A 46.433 46.433 0 0 1 203.219 69.959 Q 202.806 70.404 202.43 70.783 A 20.905 20.905 0 0 1 201.63 71.55 Q 201.187 71.951 200.735 72.183 A 2.725 2.725 0 0 1 199.48 72.5 Q 198.08 72.5 198.08 70.4 Q 198.08 69.3 198.363 67.798 A 27.775 27.775 0 0 1 198.68 66.35 A 45.827 45.827 0 0 1 199.089 64.799 A 54.048 54.048 0 0 1 200.23 61.25 A 59.875 59.875 0 0 1 200.289 61.085 A 64.926 64.926 0 0 1 202.43 55.9 A 77.725 77.725 0 0 1 203.374 53.931 A 65.072 65.072 0 0 1 204.98 50.9 Q 204.98 50 204.18 50 A 28.224 28.224 0 0 0 202.605 50.852 A 33.317 33.317 0 0 0 199.38 53 A 54.139 54.139 0 0 0 197.945 54.112 Q 196.531 55.249 195.58 56.2 Q 195.418 56.443 195.551 56.718 A 0.9 0.9 0 0 0 195.63 56.85 A 0.831 0.831 0 0 0 195.703 56.939 Q 195.886 57.133 196.096 57.046 Z M 204.63 45.75 A 0.569 0.569 0 0 0 204.641 45.761 Q 204.887 45.993 205.18 45.7 A 43.601 43.601 0 0 1 206.007 44.234 A 50.559 50.559 0 0 1 208.48 40.45 A 32.602 32.602 0 0 1 209.933 38.568 A 26.304 26.304 0 0 1 212.48 35.9 Q 212.651 35.729 212.456 35.522 A 0.854 0.854 0 0 0 212.38 35.45 A 1.075 1.075 0 0 0 212.342 35.42 Q 212.061 35.207 211.78 35.3 Q 208.989 37.735 206.939 39.993 A 34.904 34.904 0 0 0 204.48 43 A 1.45 1.45 0 0 0 204.229 43.546 A 1.984 1.984 0 0 0 204.18 44 Q 204.18 44.6 204.28 45.05 A 2.134 2.134 0 0 0 204.299 45.13 Q 204.402 45.523 204.63 45.75 Z"
            id="5" vector-effect="non-scaling-stroke" />
        <path
            d="M 234.206 69.134 A 0.651 0.651 0 0 0 234.08 69.2 A 18.478 18.478 0 0 1 233.152 70.356 Q 231.098 72.7 229.38 72.7 A 1.426 1.426 0 0 1 228.55 72.466 Q 227.988 72.078 227.836 71.05 A 5.847 5.847 0 0 1 227.78 70.2 Q 227.78 68.231 228.239 66.057 A 28.479 28.479 0 0 1 229.23 62.55 Q 230.68 58.4 232.78 54.6 A 7.163 7.163 0 0 0 232.991 54.092 A 5.973 5.973 0 0 0 233.38 52 Q 233.38 51.2 232.73 50.6 A 1.971 1.971 0 0 0 232.342 50.322 Q 232.019 50.144 231.606 50.064 A 3.848 3.848 0 0 0 230.88 50 A 6.582 6.582 0 0 0 230.618 50.005 Q 229.699 50.042 228.715 50.334 A 11.013 11.013 0 0 0 227.03 51 A 18.145 18.145 0 0 0 225.236 52.009 A 22.904 22.904 0 0 0 222.93 53.7 Q 220.88 55.4 218.98 57.8 Q 217.08 60.2 215.68 62.9 Q 216.48 60.5 217.18 58.05 A 54.99 54.99 0 0 0 217.663 56.248 A 45.228 45.228 0 0 0 218.28 53.4 A 8.916 8.916 0 0 0 218.371 52.964 Q 218.808 50.578 217.38 50.113 A 2.587 2.587 0 0 0 216.58 50 A 5.314 5.314 0 0 0 213.978 50.686 A 7.352 7.352 0 0 0 212.48 51.8 A 27.637 27.637 0 0 0 212.109 52.158 Q 211.323 52.931 210.687 53.685 A 15.93 15.93 0 0 0 209.48 55.3 Q 209.38 55.6 209.63 55.9 A 0.973 0.973 0 0 0 209.663 55.938 Q 209.857 56.149 210.021 56.047 A 0.326 0.326 0 0 0 210.08 56 A 27.031 27.031 0 0 1 210.485 55.427 Q 210.926 54.819 211.351 54.312 A 13.94 13.94 0 0 1 212.18 53.4 Q 213.18 52.4 214.18 52.4 Q 215.28 52.4 214.88 54.3 Q 213.48 59.6 211.63 65 Q 209.78 70.4 208.08 74.7 Q 207.78 75.6 208.88 75.6 Q 209.68 75.6 210.58 75.25 A 3.123 3.123 0 0 0 210.961 75.074 Q 211.526 74.761 211.68 74.3 Q 214.233 66.977 217.079 62.272 A 28.37 28.37 0 0 1 219.93 58.3 A 29.82 29.82 0 0 1 220.813 57.33 Q 224.75 53.2 228.08 53.2 A 1.463 1.463 0 0 1 228.353 53.224 Q 228.897 53.328 229.034 53.878 A 1.753 1.753 0 0 1 229.08 54.3 Q 229.08 55 228.68 55.7 Q 226.58 59.9 225.38 64.05 Q 224.761 66.19 224.461 68.131 A 22.76 22.76 0 0 0 224.18 71.6 A 8.688 8.688 0 0 0 224.22 72.458 Q 224.441 74.686 225.887 75.334 A 3.379 3.379 0 0 0 227.28 75.6 Q 228.531 75.6 229.904 74.754 A 9.917 9.917 0 0 0 231.13 73.85 A 22.6 22.6 0 0 0 231.448 73.573 A 24.395 24.395 0 0 0 234.88 69.8 A 0.893 0.893 0 0 0 234.897 69.715 Q 234.93 69.491 234.823 69.338 A 0.529 0.529 0 0 0 234.68 69.2 A 0.667 0.667 0 0 0 234.572 69.141 Q 234.389 69.063 234.206 69.134 Z"
            id="6" vector-effect="non-scaling-stroke" />
        <path
            d="M 295.18 0 Q 297.78 0 298.48 2 Q 299.072 3.691 298.162 6.096 A 13.049 13.049 0 0 1 297.78 7 Q 297.079 7.526 296.839 6.901 A 1.415 1.415 0 0 1 296.78 6.7 Q 296.891 5.92 296.63 5.326 A 2.176 2.176 0 0 0 295.98 4.5 A 3.351 3.351 0 0 0 294.845 3.919 Q 294.37 3.776 293.802 3.726 A 7.186 7.186 0 0 0 293.18 3.7 A 11.389 11.389 0 0 0 288.898 4.57 Q 287.421 5.165 285.927 6.168 A 19.818 19.818 0 0 0 285.88 6.2 A 27.214 27.214 0 0 0 282.244 9.174 Q 280.663 10.699 279.12 12.6 A 45.954 45.954 0 0 0 278.68 13.15 A 67.031 67.031 0 0 0 275.017 18.316 A 89.204 89.204 0 0 0 271.88 23.6 A 113.372 113.372 0 0 0 267.211 33.163 A 131.117 131.117 0 0 0 265.78 36.6 A 163.689 163.689 0 0 0 260.871 50.773 A 178.33 178.33 0 0 0 260.73 51.25 Q 258.48 58.9 257.08 66.6 Q 256.713 68.709 256.851 70.355 A 9.749 9.749 0 0 0 256.88 70.65 Q 256.967 71.417 257.247 71.848 A 1.158 1.158 0 0 0 258.28 72.4 A 2.341 2.341 0 0 0 259.345 72.13 Q 259.7 71.951 260.054 71.652 A 5.476 5.476 0 0 0 260.48 71.25 Q 261.58 70.1 262.48 68.7 Q 262.653 68.527 262.938 68.653 A 1.008 1.008 0 0 1 263.03 68.7 A 0.636 0.636 0 0 1 263.176 68.812 Q 263.355 69 263.28 69.3 A 10.391 10.391 0 0 1 262.807 70.065 Q 262.562 70.429 262.261 70.82 A 20.035 20.035 0 0 1 261.88 71.3 Q 260.98 72.4 259.93 73.35 A 13.962 13.962 0 0 1 258.462 74.515 A 12.001 12.001 0 0 1 257.78 74.95 Q 256.979 75.424 256.284 75.552 A 2.767 2.767 0 0 1 255.78 75.6 A 3.069 3.069 0 0 1 254.841 75.466 Q 253.934 75.175 253.481 74.258 A 3.154 3.154 0 0 1 253.43 74.15 Q 252.78 72.7 252.98 70.4 A 24.508 24.508 0 0 1 253.212 68.157 A 20.877 20.877 0 0 1 253.38 67.2 Q 253.68 65.7 254.08 64 A 18.479 18.479 0 0 1 252.068 67.53 A 20.933 20.933 0 0 1 251.68 68.05 A 37.533 37.533 0 0 1 249.374 70.778 A 33.15 33.15 0 0 1 248.58 71.6 Q 246.98 73.2 245.43 74.25 Q 243.917 75.275 242.833 75.585 A 4.384 4.384 0 0 1 242.78 75.6 Q 241.12 75.6 239.603 74.217 A 7.647 7.647 0 0 1 239.53 74.15 A 4.372 4.372 0 0 1 238.43 72.442 Q 238.17 71.738 238.06 70.865 A 10.954 10.954 0 0 1 237.98 69.5 Q 237.98 65.7 239.28 62.15 A 21.388 21.388 0 0 1 241.883 57.133 A 19.528 19.528 0 0 1 242.83 55.9 Q 245.08 53.2 248.03 51.55 Q 250.98 49.9 254.38 49.9 A 6.896 6.896 0 0 1 255.356 49.966 A 5.084 5.084 0 0 1 256.33 50.2 Q 257.18 50.5 257.88 51 Q 259.68 45.6 262.23 39.7 Q 264.78 33.8 267.78 28.15 Q 270.78 22.5 274.13 17.4 A 76.646 76.646 0 0 1 277.962 12.058 A 60.907 60.907 0 0 1 281.03 8.45 A 43.277 43.277 0 0 1 284.481 5.084 A 31.799 31.799 0 0 1 288.18 2.3 A 16.494 16.494 0 0 1 291.017 0.833 Q 292.903 0.091 294.731 0.01 A 10.119 10.119 0 0 1 295.18 0 Z M 244.58 72.1 A 2.505 2.505 0 0 0 245.389 71.953 Q 246.09 71.713 246.93 71.083 A 10.551 10.551 0 0 0 247.23 70.85 A 16.164 16.164 0 0 0 248.731 69.463 Q 249.531 68.631 250.33 67.6 A 31.141 31.141 0 0 0 252.019 65.182 A 40.636 40.636 0 0 0 253.33 62.95 Q 254.78 60.3 255.78 57.5 Q 256.08 56.5 256.38 55.6 Q 256.68 54.7 256.88 53.8 A 3.031 3.031 0 0 0 256.239 52.689 A 2.944 2.944 0 0 0 255.38 52.05 Q 254.28 51.5 252.88 51.5 A 7.329 7.329 0 0 0 249.667 52.259 A 9.252 9.252 0 0 0 248.78 52.75 A 11.668 11.668 0 0 0 246.242 54.918 A 14.52 14.52 0 0 0 245.23 56.2 A 17.188 17.188 0 0 0 243.564 59.179 A 21.902 21.902 0 0 0 242.73 61.4 Q 241.78 64.4 241.78 68 A 8.292 8.292 0 0 0 241.847 69.094 Q 242.016 70.359 242.608 71.075 A 2.544 2.544 0 0 0 242.63 71.1 A 3.294 3.294 0 0 0 243.244 71.67 A 2.28 2.28 0 0 0 244.58 72.1 Z"
            id="7" vector-effect="non-scaling-stroke" />
        <path
            d="M 283.461 56.388 A 3.548 3.548 0 0 0 284.08 54.4 A 4.065 4.065 0 0 0 283.668 52.598 A 4.886 4.886 0 0 0 282.78 51.35 A 4.423 4.423 0 0 0 281.552 50.439 A 4.389 4.389 0 0 0 279.58 50 A 7.399 7.399 0 0 0 276.811 50.539 A 9.221 9.221 0 0 0 274.63 51.8 A 16.216 16.216 0 0 0 272.878 53.359 A 19.255 19.255 0 0 0 270.48 56.4 A 25.067 25.067 0 0 0 270.257 56.752 A 26.879 26.879 0 0 0 267.58 62.55 A 23.708 23.708 0 0 0 266.868 65.214 A 18.463 18.463 0 0 0 266.48 68.9 A 11.803 11.803 0 0 0 266.519 69.88 Q 266.605 70.912 266.879 71.761 A 5.401 5.401 0 0 0 268.13 73.9 A 5.392 5.392 0 0 0 270.355 75.298 A 6.498 6.498 0 0 0 272.38 75.6 Q 275.18 75.6 277.73 73.95 A 18.16 18.16 0 0 0 277.967 73.794 A 16.007 16.007 0 0 0 281.98 70 A 1.225 1.225 0 0 0 281.998 69.963 Q 282.17 69.586 281.98 69.3 A 0.526 0.526 0 0 0 281.944 69.252 Q 281.775 69.053 281.486 69.155 A 0.928 0.928 0 0 0 281.38 69.2 Q 279.98 70.9 278.23 71.9 Q 276.48 72.9 274.48 72.9 A 4.531 4.531 0 0 1 274.254 72.895 Q 273.178 72.841 272.376 72.269 A 3.881 3.881 0 0 1 271.38 71.2 A 6.053 6.053 0 0 1 271.37 71.184 Q 270.28 69.489 270.28 67 Q 270.28 65.7 270.33 64.6 Q 270.38 63.5 270.48 62.4 A 94.718 94.718 0 0 0 271.814 62.044 A 84.161 84.161 0 0 0 275.63 60.9 A 37.168 37.168 0 0 0 277.806 60.117 A 27.809 27.809 0 0 0 279.98 59.15 A 14.825 14.825 0 0 0 280.381 58.942 Q 281.148 58.529 281.773 58.07 A 8.262 8.262 0 0 0 282.98 57 A 4.916 4.916 0 0 0 283.461 56.388 Z M 277.48 52.6 A 5.057 5.057 0 0 0 274.251 53.773 A 7.333 7.333 0 0 0 273.38 54.6 Q 271.615 56.561 270.812 60.731 A 26.865 26.865 0 0 0 270.78 60.9 Q 275.58 60.2 277.83 58.85 Q 280.08 57.5 280.08 55.8 A 4.592 4.592 0 0 0 279.973 54.783 A 3.219 3.219 0 0 0 279.38 53.5 A 2.239 2.239 0 0 0 277.745 52.612 A 2.988 2.988 0 0 0 277.48 52.6 Z"
            id="8" vector-effect="non-scaling-stroke" />
        <path
            d="M 296.126 54.155 A 18.42 18.42 0 0 0 296.18 52.8 A 6.015 6.015 0 0 0 296.152 52.209 Q 295.934 50 293.98 50 A 3.792 3.792 0 0 0 292.75 50.217 Q 292.191 50.407 291.606 50.767 A 9.094 9.094 0 0 0 290.53 51.55 Q 288.68 53.1 287.18 55 A 0.986 0.986 0 0 0 287.159 55.044 Q 287.035 55.326 287.17 55.53 A 0.558 0.558 0 0 0 287.28 55.65 A 0.705 0.705 0 0 0 287.322 55.683 Q 287.552 55.847 287.839 55.758 A 0.942 0.942 0 0 0 287.98 55.7 A 14.591 14.591 0 0 1 288.323 55.261 A 12.806 12.806 0 0 1 289.93 53.6 A 6.959 6.959 0 0 1 290.063 53.489 Q 290.659 53.003 291.172 52.816 A 1.779 1.779 0 0 1 291.78 52.7 A 0.913 0.913 0 0 1 292.67 53.296 Q 293.002 54.037 292.78 55.7 Q 292.48 57.7 291.98 60.1 A 54.196 54.196 0 0 1 291.851 60.702 A 59.488 59.488 0 0 1 290.73 65 Q 289.98 67.5 289.18 69.95 A 61.035 61.035 0 0 1 288.566 71.739 A 50.965 50.965 0 0 1 287.48 74.5 Q 286.88 75.6 287.98 75.6 A 5.117 5.117 0 0 0 288.456 75.577 Q 288.779 75.546 289.148 75.477 A 11.531 11.531 0 0 0 289.93 75.3 Q 291.08 75 291.28 74 A 134.668 134.668 0 0 1 291.502 73.184 Q 293.904 64.468 296.58 59.45 A 21.853 21.853 0 0 1 296.828 58.998 Q 298.251 56.474 299.852 55.278 A 4.984 4.984 0 0 1 302.88 54.2 A 5.041 5.041 0 0 1 303.472 54.233 Q 304.646 54.372 305.013 55.107 A 1.756 1.756 0 0 1 305.18 55.9 A 1.526 1.526 0 0 0 305.18 55.94 Q 305.197 56.589 305.78 56.2 A 3.191 3.191 0 0 0 305.807 56.173 Q 306.206 55.764 306.605 55.068 A 11.146 11.146 0 0 0 306.98 54.35 Q 307.383 53.51 307.515 52.874 A 2.834 2.834 0 0 0 307.58 52.3 A 2.566 2.566 0 0 0 307.575 52.148 Q 307.516 51.158 306.68 50.6 Q 305.78 50 304.68 50 Q 302.755 50 301.019 51.3 A 10.075 10.075 0 0 0 299.48 52.75 Q 297.08 55.5 295.08 60.3 Q 295.58 58.3 295.88 56.3 Q 296.053 55.144 296.126 54.155 Z"
            id="9" vector-effect="non-scaling-stroke" />
        <path
            d="M 339.58 51 A 0.598 0.598 0 0 0 339.589 50.959 Q 339.654 50.59 339.18 50.4 Q 337.18 50.4 335.38 50.45 Q 333.58 50.5 331.78 50.5 Q 333.28 47.1 334.93 43.9 A 74.382 74.382 0 0 1 336.279 41.399 A 59.647 59.647 0 0 1 338.28 38.1 A 0.494 0.494 0 0 0 338.282 38.093 Q 338.36 37.848 338.097 37.773 A 0.785 0.785 0 0 0 337.98 37.75 Q 337.683 37.713 337.221 37.786 A 6.409 6.409 0 0 0 336.88 37.85 A 4.163 4.163 0 0 0 336.122 38.094 A 5.654 5.654 0 0 0 335.43 38.45 Q 334.68 38.9 334.08 39.5 A 73.612 73.612 0 0 0 333.03 41.364 A 90.018 90.018 0 0 0 331.28 44.75 Q 329.88 47.6 328.48 50.7 L 327.73 50.7 A 2.879 2.879 0 0 0 327.541 50.707 Q 327.396 50.716 327.23 50.74 A 6.28 6.28 0 0 0 326.88 50.8 Q 326.08 50.8 325.18 51.15 A 13.302 13.302 0 0 0 325.065 51.196 Q 324.238 51.526 323.63 51.9 A 5.489 5.489 0 0 0 323.603 51.917 Q 323.195 52.171 322.949 52.425 A 1.674 1.674 0 0 0 322.73 52.7 Q 322.48 53.1 322.98 53.2 Q 324.08 53 325.28 52.8 Q 326.48 52.6 327.78 52.4 A 116.138 116.138 0 0 0 326.774 55.031 A 100.902 100.902 0 0 0 324.28 62.7 A 49.772 49.772 0 0 0 323.512 65.798 Q 323.203 67.256 323.045 68.531 A 20.184 20.184 0 0 0 322.88 71 A 6.402 6.402 0 0 0 322.911 71.637 A 4.968 4.968 0 0 0 323.93 74.25 Q 324.654 75.181 325.924 75.47 A 5.662 5.662 0 0 0 327.18 75.6 A 1.955 1.955 0 0 0 327.334 75.594 Q 327.788 75.558 328.393 75.316 A 7.807 7.807 0 0 0 328.98 75.05 Q 330.08 74.5 331.28 73.6 A 15.498 15.498 0 0 0 332.173 72.876 A 18.663 18.663 0 0 0 333.63 71.45 Q 334.78 70.2 335.68 68.8 A 1.366 1.366 0 0 0 335.697 68.694 Q 335.747 68.273 335.48 68.05 A 0.838 0.838 0 0 0 335.452 68.028 Q 335.166 67.81 334.88 68 A 23.189 23.189 0 0 1 333.766 69.525 Q 332.316 71.337 330.983 72.081 A 3.694 3.694 0 0 1 329.18 72.6 A 3.632 3.632 0 0 1 328.871 72.587 Q 327.075 72.434 326.687 70.44 A 6.521 6.521 0 0 1 326.58 69.2 A 13.867 13.867 0 0 1 326.58 69.167 Q 326.585 67.115 327.194 64.319 A 46.262 46.262 0 0 1 327.88 61.6 A 86.57 86.57 0 0 1 328.953 58.094 A 103.558 103.558 0 0 1 331.18 52 Q 333.18 51.8 335.13 51.7 Q 337.08 51.6 338.68 51.5 A 2.873 2.873 0 0 0 338.877 51.469 Q 339.199 51.406 339.377 51.28 A 0.484 0.484 0 0 0 339.58 51 Z"
            id="11" vector-effect="non-scaling-stroke" />
        <path
            d="M 338.28 74.7 Q 342.78 57.5 348.38 43.7 A 183.989 183.989 0 0 1 353.385 32.41 Q 356.054 26.923 358.839 22.292 A 103.597 103.597 0 0 1 360.13 20.2 Q 366.28 10.5 372.68 5.25 A 29.075 29.075 0 0 1 376.837 2.37 Q 381.049 0 385.08 0 Q 386.915 0 388.228 0.591 A 5.27 5.27 0 0 1 388.73 0.85 A 5.533 5.533 0 0 1 389.789 1.643 A 4.108 4.108 0 0 1 390.73 3 A 4.865 4.865 0 0 1 391.106 4.801 Q 391.117 5.259 391.052 5.745 A 6.918 6.918 0 0 1 391.03 5.9 A 5.999 5.999 0 0 1 390.32 7.909 A 7.996 7.996 0 0 1 389.58 9 Q 389.38 9.3 389.08 9.2 A 0.402 0.402 0 0 1 388.81 8.923 Q 388.785 8.845 388.781 8.747 A 0.998 0.998 0 0 1 388.78 8.7 Q 389.065 7.275 388.334 5.952 A 5.831 5.831 0 0 0 387.58 4.9 Q 386.284 3.443 383.744 3.166 A 11.655 11.655 0 0 0 382.48 3.1 Q 378.186 3.1 373.725 6.188 A 25.318 25.318 0 0 0 372.88 6.8 A 29.89 29.89 0 0 0 369.205 10.131 Q 367.482 11.952 365.759 14.262 A 66.506 66.506 0 0 0 363.08 18.15 Q 359.271 24.097 355.552 32.43 A 174.307 174.307 0 0 0 353.43 37.4 A 195.64 195.64 0 0 0 349.341 48.373 Q 347.401 54.061 345.524 60.513 A 348.097 348.097 0 0 0 344.28 64.9 Q 345.88 61.8 347.98 59.05 A 39.314 39.314 0 0 1 350.374 56.194 A 31.299 31.299 0 0 1 352.28 54.3 A 23.185 23.185 0 0 1 354.631 52.415 A 18.138 18.138 0 0 1 356.73 51.15 Q 358.98 50 361.08 50 A 3.825 3.825 0 0 1 361.755 50.056 Q 362.463 50.183 362.88 50.6 A 2.091 2.091 0 0 1 363.315 51.218 A 1.879 1.879 0 0 1 363.48 52 A 4.505 4.505 0 0 1 363.307 53.195 Q 363.162 53.724 362.894 54.293 A 9.461 9.461 0 0 1 362.58 54.9 Q 360.48 58.6 359.13 62.5 A 27.393 27.393 0 0 0 358.219 65.723 Q 357.78 67.775 357.78 69.6 Q 357.78 70.608 357.961 71.356 A 4.279 4.279 0 0 0 358.13 71.9 Q 358.371 72.521 358.827 72.714 A 1.152 1.152 0 0 0 359.28 72.8 A 2.256 2.256 0 0 0 360.15 72.614 Q 360.765 72.358 361.43 71.75 Q 362.58 70.7 363.48 69.4 Q 363.766 69.21 364.052 69.428 A 0.838 0.838 0 0 1 364.08 69.45 A 0.66 0.66 0 0 1 364.228 69.62 Q 364.332 69.797 364.295 70.027 A 0.892 0.892 0 0 1 364.28 70.1 A 12.295 12.295 0 0 1 363.558 71.071 A 16.371 16.371 0 0 1 362.78 71.95 Q 361.88 72.9 360.83 73.75 A 10.613 10.613 0 0 1 359.43 74.715 A 9.01 9.01 0 0 1 358.68 75.1 A 6.543 6.543 0 0 1 357.883 75.405 Q 357.442 75.539 357.039 75.581 A 3.472 3.472 0 0 1 356.68 75.6 Q 354.303 75.6 354.186 71.804 A 13.098 13.098 0 0 1 354.18 71.4 A 25.149 25.149 0 0 1 354.518 67.392 A 34.292 34.292 0 0 1 355.38 63.55 A 45.84 45.84 0 0 1 356.796 59.303 A 35.291 35.291 0 0 1 358.28 56 A 6.053 6.053 0 0 0 358.583 55.433 Q 358.859 54.837 358.878 54.37 A 1.687 1.687 0 0 0 358.88 54.3 A 1.04 1.04 0 0 0 358.812 53.908 Q 358.606 53.4 357.78 53.4 Q 355.98 53.4 353.88 54.8 Q 351.78 56.2 349.58 58.9 Q 347.449 61.516 345.505 65.211 A 52.67 52.67 0 0 0 345.38 65.45 A 54.415 54.415 0 0 0 343.146 70.357 A 68.575 68.575 0 0 0 341.78 74.1 A 1.529 1.529 0 0 1 341.285 74.85 Q 341.086 75.021 340.815 75.159 A 3.102 3.102 0 0 1 340.73 75.2 Q 339.88 75.6 339.08 75.6 Q 337.98 75.6 338.28 74.7 Z"
            id="12" vector-effect="non-scaling-stroke" />
        <path
            d="M 391.97 69.233 A 0.365 0.365 0 0 0 391.88 69.3 Q 390.338 71.283 389.227 72.16 A 4.424 4.424 0 0 1 388.48 72.65 A 4.677 4.677 0 0 1 388.365 72.706 Q 387.157 73.269 386.68 72.6 A 1.593 1.593 0 0 1 386.616 72.495 Q 386.094 71.564 386.33 69.25 Q 386.478 67.796 386.856 66.076 A 44.166 44.166 0 0 1 387.48 63.6 A 35.436 35.436 0 0 1 388.26 61.172 A 42.937 42.937 0 0 1 390.03 57 Q 391.68 53.6 393.98 50.8 A 1.238 1.238 0 0 0 393.982 50.794 Q 394.177 50.3 393.68 50.3 A 3.667 3.667 0 0 0 393.55 50.303 Q 392.704 50.333 391.73 50.75 Q 391.074 51.031 390.593 51.332 A 4.682 4.682 0 0 0 390.08 51.7 Q 388.98 50.9 387.68 50.5 Q 386.908 50.263 385.96 50.166 A 13.654 13.654 0 0 0 384.58 50.1 Q 381.28 50.1 378.28 51.7 Q 375.28 53.3 372.98 55.95 Q 370.68 58.6 369.33 61.85 A 19.312 19.312 0 0 0 369.156 62.282 A 16.82 16.82 0 0 0 367.98 68.4 A 20.808 20.808 0 0 0 367.985 68.87 Q 368.06 72.213 369.23 73.85 A 5.276 5.276 0 0 0 369.867 74.595 A 3.385 3.385 0 0 0 372.28 75.6 A 8.14 8.14 0 0 0 374.228 74.898 Q 375.215 74.402 376.224 73.617 A 18.86 18.86 0 0 0 378.08 71.95 A 39.501 39.501 0 0 0 380.647 69.061 A 49.83 49.83 0 0 0 383.78 64.7 A 30.845 30.845 0 0 0 383.47 65.87 A 26.291 26.291 0 0 0 382.93 68.75 Q 382.756 70.106 382.775 71.269 A 12.353 12.353 0 0 0 382.83 72.25 Q 382.92 73.183 383.155 73.88 A 4.049 4.049 0 0 0 383.53 74.7 Q 384.08 75.6 384.98 75.6 Q 386.38 75.6 388.43 74.2 A 11.737 11.737 0 0 0 389.5 73.37 Q 391.026 72.046 392.58 69.9 A 0.893 0.893 0 0 0 392.597 69.815 Q 392.63 69.591 392.523 69.438 A 0.529 0.529 0 0 0 392.38 69.3 Q 392.144 69.143 391.97 69.233 Z M 376.688 71.184 A 12.394 12.394 0 0 0 377.33 70.65 Q 379.08 69.1 380.98 66.6 A 52.229 52.229 0 0 0 383.218 63.402 A 65.518 65.518 0 0 0 384.73 60.95 Q 386.58 57.8 387.98 54.6 A 3.274 3.274 0 0 0 386.968 53.079 A 4.792 4.792 0 0 0 386.13 52.5 Q 384.68 51.7 382.78 51.7 Q 380.58 51.7 378.63 52.85 Q 376.68 54 375.18 56.05 A 15.567 15.567 0 0 0 373.539 58.906 A 19.578 19.578 0 0 0 372.78 60.9 A 18.662 18.662 0 0 0 371.996 64.734 A 23.416 23.416 0 0 0 371.88 67.1 A 10.664 10.664 0 0 0 371.985 68.645 Q 372.106 69.468 372.365 70.153 A 5.618 5.618 0 0 0 372.63 70.75 Q 373.037 71.538 373.547 71.897 A 1.585 1.585 0 0 0 374.48 72.2 Q 375.371 72.2 376.688 71.184 Z"
            id="13" vector-effect="non-scaling-stroke" />
        <path
            d="M 415.28 51 A 0.598 0.598 0 0 0 415.289 50.959 Q 415.354 50.59 414.88 50.4 Q 412.88 50.4 411.08 50.45 Q 409.28 50.5 407.48 50.5 Q 408.98 47.1 410.63 43.9 A 74.382 74.382 0 0 1 411.979 41.399 A 59.647 59.647 0 0 1 413.98 38.1 A 0.494 0.494 0 0 0 413.982 38.093 Q 414.06 37.848 413.797 37.773 A 0.785 0.785 0 0 0 413.68 37.75 Q 413.383 37.713 412.921 37.786 A 6.409 6.409 0 0 0 412.58 37.85 A 4.163 4.163 0 0 0 411.822 38.094 A 5.654 5.654 0 0 0 411.13 38.45 Q 410.38 38.9 409.78 39.5 A 73.612 73.612 0 0 0 408.73 41.364 A 90.018 90.018 0 0 0 406.98 44.75 Q 405.58 47.6 404.18 50.7 L 403.43 50.7 A 2.879 2.879 0 0 0 403.241 50.707 Q 403.096 50.716 402.93 50.74 A 6.28 6.28 0 0 0 402.58 50.8 Q 401.78 50.8 400.88 51.15 A 13.302 13.302 0 0 0 400.765 51.196 Q 399.938 51.526 399.33 51.9 A 5.489 5.489 0 0 0 399.303 51.917 Q 398.895 52.171 398.649 52.425 A 1.674 1.674 0 0 0 398.43 52.7 Q 398.18 53.1 398.68 53.2 Q 399.78 53 400.98 52.8 Q 402.18 52.6 403.48 52.4 A 116.138 116.138 0 0 0 402.474 55.031 A 100.902 100.902 0 0 0 399.98 62.7 A 49.772 49.772 0 0 0 399.212 65.798 Q 398.903 67.256 398.745 68.531 A 20.184 20.184 0 0 0 398.58 71 A 6.402 6.402 0 0 0 398.611 71.637 A 4.968 4.968 0 0 0 399.63 74.25 Q 400.354 75.181 401.624 75.47 A 5.662 5.662 0 0 0 402.88 75.6 A 1.955 1.955 0 0 0 403.034 75.594 Q 403.488 75.558 404.093 75.316 A 7.807 7.807 0 0 0 404.68 75.05 Q 405.78 74.5 406.98 73.6 A 15.498 15.498 0 0 0 407.873 72.876 A 18.663 18.663 0 0 0 409.33 71.45 Q 410.48 70.2 411.38 68.8 A 1.366 1.366 0 0 0 411.397 68.694 Q 411.447 68.273 411.18 68.05 A 0.838 0.838 0 0 0 411.152 68.028 Q 410.866 67.81 410.58 68 A 23.189 23.189 0 0 1 409.466 69.525 Q 408.016 71.337 406.683 72.081 A 3.694 3.694 0 0 1 404.88 72.6 A 3.632 3.632 0 0 1 404.571 72.587 Q 402.775 72.434 402.387 70.44 A 6.521 6.521 0 0 1 402.28 69.2 A 13.867 13.867 0 0 1 402.28 69.167 Q 402.285 67.115 402.894 64.319 A 46.262 46.262 0 0 1 403.58 61.6 A 86.57 86.57 0 0 1 404.653 58.094 A 103.558 103.558 0 0 1 406.88 52 Q 408.88 51.8 410.83 51.7 Q 412.78 51.6 414.38 51.5 A 2.873 2.873 0 0 0 414.577 51.469 Q 414.899 51.406 415.077 51.28 A 0.484 0.484 0 0 0 415.28 51 Z"
            id="14" vector-effect="non-scaling-stroke" />
        <path
            d="M 438.426 54.155 A 18.42 18.42 0 0 0 438.48 52.8 A 6.015 6.015 0 0 0 438.452 52.209 Q 438.234 50 436.28 50 A 3.792 3.792 0 0 0 435.05 50.217 Q 434.491 50.407 433.906 50.767 A 9.094 9.094 0 0 0 432.83 51.55 Q 430.98 53.1 429.48 55 A 0.986 0.986 0 0 0 429.459 55.044 Q 429.335 55.326 429.47 55.53 A 0.558 0.558 0 0 0 429.58 55.65 A 0.705 0.705 0 0 0 429.622 55.683 Q 429.852 55.847 430.139 55.758 A 0.942 0.942 0 0 0 430.28 55.7 A 14.591 14.591 0 0 1 430.623 55.261 A 12.806 12.806 0 0 1 432.23 53.6 A 6.959 6.959 0 0 1 432.363 53.489 Q 432.959 53.003 433.472 52.816 A 1.779 1.779 0 0 1 434.08 52.7 A 0.913 0.913 0 0 1 434.97 53.296 Q 435.302 54.037 435.08 55.7 Q 434.78 57.7 434.28 60.1 A 54.196 54.196 0 0 1 434.151 60.702 A 59.488 59.488 0 0 1 433.03 65 Q 432.28 67.5 431.48 69.95 A 61.035 61.035 0 0 1 430.866 71.739 A 50.965 50.965 0 0 1 429.78 74.5 Q 429.18 75.6 430.28 75.6 A 5.117 5.117 0 0 0 430.756 75.577 Q 431.079 75.546 431.448 75.477 A 11.531 11.531 0 0 0 432.23 75.3 Q 433.38 75 433.58 74 A 134.668 134.668 0 0 1 433.802 73.184 Q 436.204 64.468 438.88 59.45 A 21.853 21.853 0 0 1 439.128 58.998 Q 440.551 56.474 442.152 55.278 A 4.984 4.984 0 0 1 445.18 54.2 A 5.041 5.041 0 0 1 445.772 54.233 Q 446.946 54.372 447.313 55.107 A 1.756 1.756 0 0 1 447.48 55.9 A 1.526 1.526 0 0 0 447.48 55.94 Q 447.497 56.589 448.08 56.2 A 3.191 3.191 0 0 0 448.107 56.173 Q 448.506 55.764 448.905 55.068 A 11.146 11.146 0 0 0 449.28 54.35 Q 449.683 53.51 449.815 52.874 A 2.834 2.834 0 0 0 449.88 52.3 A 2.566 2.566 0 0 0 449.875 52.148 Q 449.816 51.158 448.98 50.6 Q 448.08 50 446.98 50 Q 445.055 50 443.319 51.3 A 10.075 10.075 0 0 0 441.78 52.75 Q 439.38 55.5 437.38 60.3 Q 437.88 58.3 438.18 56.3 Q 438.353 55.144 438.426 54.155 Z"
            id="16" vector-effect="non-scaling-stroke" />
        <path
            d="M 465.861 56.388 A 3.548 3.548 0 0 0 466.48 54.4 A 4.065 4.065 0 0 0 466.068 52.598 A 4.886 4.886 0 0 0 465.18 51.35 A 4.423 4.423 0 0 0 463.952 50.439 A 4.389 4.389 0 0 0 461.98 50 A 7.399 7.399 0 0 0 459.211 50.539 A 9.221 9.221 0 0 0 457.03 51.8 A 16.216 16.216 0 0 0 455.278 53.359 A 19.255 19.255 0 0 0 452.88 56.4 A 25.067 25.067 0 0 0 452.657 56.752 A 26.879 26.879 0 0 0 449.98 62.55 A 23.708 23.708 0 0 0 449.268 65.214 A 18.463 18.463 0 0 0 448.88 68.9 A 11.803 11.803 0 0 0 448.919 69.88 Q 449.005 70.912 449.279 71.761 A 5.401 5.401 0 0 0 450.53 73.9 A 5.392 5.392 0 0 0 452.755 75.298 A 6.498 6.498 0 0 0 454.78 75.6 Q 457.58 75.6 460.13 73.95 A 18.16 18.16 0 0 0 460.367 73.794 A 16.007 16.007 0 0 0 464.38 70 A 1.225 1.225 0 0 0 464.398 69.963 Q 464.57 69.586 464.38 69.3 A 0.526 0.526 0 0 0 464.344 69.252 Q 464.175 69.053 463.886 69.155 A 0.928 0.928 0 0 0 463.78 69.2 Q 462.38 70.9 460.63 71.9 Q 458.88 72.9 456.88 72.9 A 4.531 4.531 0 0 1 456.654 72.895 Q 455.578 72.841 454.776 72.269 A 3.881 3.881 0 0 1 453.78 71.2 A 6.053 6.053 0 0 1 453.77 71.184 Q 452.68 69.489 452.68 67 Q 452.68 65.7 452.73 64.6 Q 452.78 63.5 452.88 62.4 A 94.718 94.718 0 0 0 454.214 62.044 A 84.161 84.161 0 0 0 458.03 60.9 A 37.168 37.168 0 0 0 460.206 60.117 A 27.809 27.809 0 0 0 462.38 59.15 A 14.825 14.825 0 0 0 462.781 58.942 Q 463.548 58.529 464.173 58.07 A 8.262 8.262 0 0 0 465.38 57 A 4.916 4.916 0 0 0 465.861 56.388 Z M 459.88 52.6 A 5.057 5.057 0 0 0 456.651 53.773 A 7.333 7.333 0 0 0 455.78 54.6 Q 454.015 56.561 453.212 60.731 A 26.865 26.865 0 0 0 453.18 60.9 Q 457.98 60.2 460.23 58.85 Q 462.48 57.5 462.48 55.8 A 4.592 4.592 0 0 0 462.373 54.783 A 3.219 3.219 0 0 0 461.78 53.5 A 2.239 2.239 0 0 0 460.145 52.612 A 2.988 2.988 0 0 0 459.88 52.6 Z"
            id="17" vector-effect="non-scaling-stroke" />
        <path
            d="M 502.08 54.6 A 4.356 4.356 0 0 0 502.023 53.86 Q 501.793 52.535 500.64 52.501 A 2.078 2.078 0 0 0 500.58 52.5 Q 499.08 52.5 497.28 54 Q 495.48 55.5 493.53 58.3 Q 491.854 60.706 490.178 64.036 A 70.654 70.654 0 0 0 489.63 65.15 Q 487.68 69.2 485.88 74.3 A 1.258 1.258 0 0 1 485.518 74.837 Q 485.255 75.075 484.83 75.25 A 4.78 4.78 0 0 1 483.915 75.528 A 3.878 3.878 0 0 1 483.18 75.6 Q 482.013 75.6 482.264 74.749 A 1.493 1.493 0 0 1 482.28 74.7 Q 482.88 72.9 483.93 70.2 Q 484.98 67.5 485.93 64.65 Q 486.88 61.8 487.58 59.3 A 28.934 28.934 0 0 0 487.918 57.981 Q 488.213 56.699 488.267 55.793 A 6.534 6.534 0 0 0 488.28 55.4 Q 488.28 53.545 487.533 52.919 A 1.433 1.433 0 0 0 486.58 52.6 A 3.424 3.424 0 0 0 484.983 53.056 Q 483.046 54.087 480.526 57.453 A 41.246 41.246 0 0 0 479.98 58.2 A 39.326 39.326 0 0 0 477.277 62.629 Q 474.742 67.41 472.38 74.3 A 1.479 1.479 0 0 1 471.902 74.98 A 2.219 2.219 0 0 1 471.48 75.25 Q 470.78 75.6 469.98 75.6 Q 469.48 75.6 469.18 75.4 Q 468.913 75.222 469.042 74.806 A 1.425 1.425 0 0 1 469.08 74.7 Q 469.88 72.5 470.78 69.85 Q 471.68 67.2 472.58 64.5 Q 473.48 61.8 474.23 59.2 Q 474.98 56.6 475.48 54.3 Q 475.98 52.5 474.98 52.5 Q 474.18 52.5 473.08 53.6 A 19.858 19.858 0 0 0 471.877 54.923 A 25.971 25.971 0 0 0 470.88 56.2 Q 470.594 56.391 470.308 56.172 A 0.838 0.838 0 0 1 470.28 56.15 A 0.671 0.671 0 0 1 470.189 56.06 Q 470.021 55.855 470.169 55.617 A 0.644 0.644 0 0 1 470.18 55.6 Q 471.68 53.5 473.53 51.75 Q 474.909 50.446 476.316 50.114 A 4.183 4.183 0 0 1 477.28 50 Q 478.58 50 478.93 51 A 3.364 3.364 0 0 1 479.1 51.794 Q 479.147 52.286 479.074 52.851 A 6.649 6.649 0 0 1 478.98 53.4 Q 478.48 55.6 478.03 57.45 A 33.91 33.91 0 0 1 477.051 60.726 A 37.277 37.277 0 0 1 476.88 61.2 Q 479.48 56.2 482.63 53.1 Q 485.78 50 488.88 50 A 2.593 2.593 0 0 1 489.898 50.195 A 2.445 2.445 0 0 1 490.83 50.9 Q 491.463 51.66 491.561 52.917 A 6.164 6.164 0 0 1 491.58 53.4 Q 491.58 55.5 491.18 57.6 Q 490.78 59.7 489.98 61.9 A 42.86 42.86 0 0 1 492.293 57.991 Q 493.531 56.145 494.837 54.696 A 21.477 21.477 0 0 1 496.43 53.1 A 15.187 15.187 0 0 1 498.688 51.4 Q 500.058 50.569 501.42 50.231 A 7.705 7.705 0 0 1 503.28 50 A 2.459 2.459 0 0 1 504.223 50.176 A 2.287 2.287 0 0 1 505.08 50.8 A 2.754 2.754 0 0 1 505.695 52.057 A 3.99 3.99 0 0 1 505.78 52.9 Q 505.78 54.588 505.121 56.583 A 17.081 17.081 0 0 1 505.03 56.85 Q 504.28 59 503.38 61.3 Q 502.48 63.6 501.73 65.85 A 15.308 15.308 0 0 0 501.156 68.104 A 11.819 11.819 0 0 0 500.98 70.1 Q 500.98 71.731 501.618 72.298 A 1.249 1.249 0 0 0 502.48 72.6 A 2.301 2.301 0 0 0 503.444 72.354 Q 504.71 71.761 506.492 69.748 A 28.308 28.308 0 0 0 506.88 69.3 A 0.326 0.326 0 0 1 506.938 69.253 Q 507.102 69.152 507.297 69.363 A 0.973 0.973 0 0 1 507.33 69.4 Q 507.573 69.692 507.39 70.079 A 1.09 1.09 0 0 1 507.38 70.1 A 16.145 16.145 0 0 1 506.797 70.829 Q 506.386 71.316 505.88 71.85 Q 504.98 72.8 504.03 73.65 Q 503.08 74.5 501.98 75.05 A 5.692 5.692 0 0 1 501.036 75.426 A 4.105 4.105 0 0 1 499.88 75.6 A 1.909 1.909 0 0 1 498.053 74.466 Q 497.629 73.622 497.585 72.15 A 11.693 11.693 0 0 1 497.58 71.8 A 17.484 17.484 0 0 1 498.195 67.256 A 19.522 19.522 0 0 1 498.28 66.95 A 60.047 60.047 0 0 1 499.724 62.532 A 55.119 55.119 0 0 1 499.83 62.25 Q 500.68 60 501.38 58 A 15.914 15.914 0 0 0 501.778 56.696 Q 502.08 55.519 502.08 54.6 Z"
            id="18" vector-effect="non-scaling-stroke" />
        <path
            d="M 512.896 57.046 A 0.496 0.496 0 0 0 512.98 57 Q 513.78 56.2 515.43 54.95 A 312.905 312.905 0 0 1 515.593 54.827 Q 517.135 53.66 518.18 52.9 Q 516.98 54.7 515.73 57.2 Q 514.48 59.7 513.48 62.4 A 52.824 52.824 0 0 0 513.464 62.442 A 49.019 49.019 0 0 0 511.83 67.75 A 29.161 29.161 0 0 0 511.551 68.999 Q 511.364 69.939 511.271 70.77 A 13.827 13.827 0 0 0 511.18 72.3 Q 511.18 74.756 512.619 75.384 A 2.882 2.882 0 0 0 513.78 75.6 A 4.098 4.098 0 0 0 515.139 75.356 Q 515.773 75.134 516.435 74.71 A 9.997 9.997 0 0 0 517.63 73.8 Q 519.68 72 521.48 69.8 A 0.98 0.98 0 0 0 521.486 69.789 Q 521.675 69.396 521.38 69.1 A 1.147 1.147 0 0 0 521.339 69.062 Q 521.066 68.814 520.88 69 A 46.433 46.433 0 0 1 520.019 69.959 Q 519.606 70.404 519.23 70.783 A 20.905 20.905 0 0 1 518.43 71.55 Q 517.987 71.951 517.535 72.183 A 2.725 2.725 0 0 1 516.28 72.5 Q 514.88 72.5 514.88 70.4 Q 514.88 69.3 515.163 67.798 A 27.775 27.775 0 0 1 515.48 66.35 A 45.827 45.827 0 0 1 515.889 64.799 A 54.048 54.048 0 0 1 517.03 61.25 A 59.875 59.875 0 0 1 517.089 61.085 A 64.926 64.926 0 0 1 519.23 55.9 A 77.725 77.725 0 0 1 520.174 53.931 A 65.072 65.072 0 0 1 521.78 50.9 Q 521.78 50 520.98 50 A 28.224 28.224 0 0 0 519.405 50.852 A 33.317 33.317 0 0 0 516.18 53 A 54.139 54.139 0 0 0 514.745 54.112 Q 513.331 55.249 512.38 56.2 Q 512.218 56.443 512.351 56.718 A 0.9 0.9 0 0 0 512.43 56.85 A 0.831 0.831 0 0 0 512.503 56.939 Q 512.686 57.133 512.896 57.046 Z M 521.43 45.75 A 0.569 0.569 0 0 0 521.441 45.761 Q 521.687 45.993 521.98 45.7 A 43.601 43.601 0 0 1 522.807 44.234 A 50.559 50.559 0 0 1 525.28 40.45 A 32.602 32.602 0 0 1 526.733 38.568 A 26.304 26.304 0 0 1 529.28 35.9 Q 529.451 35.729 529.256 35.522 A 0.854 0.854 0 0 0 529.18 35.45 A 1.075 1.075 0 0 0 529.142 35.42 Q 528.861 35.207 528.58 35.3 Q 525.789 37.735 523.739 39.993 A 34.904 34.904 0 0 0 521.28 43 A 1.45 1.45 0 0 0 521.029 43.546 A 1.984 1.984 0 0 0 520.98 44 Q 520.98 44.6 521.08 45.05 A 2.134 2.134 0 0 0 521.099 45.13 Q 521.202 45.523 521.43 45.75 Z"
            id="19" vector-effect="non-scaling-stroke" />
        <path
            d="M 551.006 69.134 A 0.651 0.651 0 0 0 550.88 69.2 A 18.478 18.478 0 0 1 549.952 70.356 Q 547.898 72.7 546.18 72.7 A 1.426 1.426 0 0 1 545.35 72.466 Q 544.788 72.078 544.636 71.05 A 5.847 5.847 0 0 1 544.58 70.2 Q 544.58 68.231 545.039 66.057 A 28.479 28.479 0 0 1 546.03 62.55 Q 547.48 58.4 549.58 54.6 A 7.163 7.163 0 0 0 549.791 54.092 A 5.973 5.973 0 0 0 550.18 52 Q 550.18 51.2 549.53 50.6 A 1.971 1.971 0 0 0 549.142 50.322 Q 548.819 50.144 548.406 50.064 A 3.848 3.848 0 0 0 547.68 50 A 6.582 6.582 0 0 0 547.418 50.005 Q 546.499 50.042 545.515 50.334 A 11.013 11.013 0 0 0 543.83 51 A 18.145 18.145 0 0 0 542.036 52.009 A 22.904 22.904 0 0 0 539.73 53.7 Q 537.68 55.4 535.78 57.8 Q 533.88 60.2 532.48 62.9 Q 533.28 60.5 533.98 58.05 A 54.99 54.99 0 0 0 534.463 56.248 A 45.228 45.228 0 0 0 535.08 53.4 A 8.916 8.916 0 0 0 535.171 52.964 Q 535.608 50.578 534.18 50.113 A 2.587 2.587 0 0 0 533.38 50 A 5.314 5.314 0 0 0 530.778 50.686 A 7.352 7.352 0 0 0 529.28 51.8 A 27.637 27.637 0 0 0 528.909 52.158 Q 528.123 52.931 527.487 53.685 A 15.93 15.93 0 0 0 526.28 55.3 Q 526.18 55.6 526.43 55.9 A 0.973 0.973 0 0 0 526.463 55.938 Q 526.657 56.149 526.821 56.047 A 0.326 0.326 0 0 0 526.88 56 A 27.031 27.031 0 0 1 527.285 55.427 Q 527.726 54.819 528.151 54.312 A 13.94 13.94 0 0 1 528.98 53.4 Q 529.98 52.4 530.98 52.4 Q 532.08 52.4 531.68 54.3 Q 530.28 59.6 528.43 65 Q 526.58 70.4 524.88 74.7 Q 524.58 75.6 525.68 75.6 Q 526.48 75.6 527.38 75.25 A 3.123 3.123 0 0 0 527.761 75.074 Q 528.326 74.761 528.48 74.3 Q 531.033 66.977 533.879 62.272 A 28.37 28.37 0 0 1 536.73 58.3 A 29.82 29.82 0 0 1 537.613 57.33 Q 541.55 53.2 544.88 53.2 A 1.463 1.463 0 0 1 545.153 53.224 Q 545.697 53.328 545.834 53.878 A 1.753 1.753 0 0 1 545.88 54.3 Q 545.88 55 545.48 55.7 Q 543.38 59.9 542.18 64.05 Q 541.561 66.19 541.261 68.131 A 22.76 22.76 0 0 0 540.98 71.6 A 8.688 8.688 0 0 0 541.02 72.458 Q 541.241 74.686 542.687 75.334 A 3.379 3.379 0 0 0 544.08 75.6 Q 545.331 75.6 546.704 74.754 A 9.917 9.917 0 0 0 547.93 73.85 A 22.6 22.6 0 0 0 548.248 73.573 A 24.395 24.395 0 0 0 551.68 69.8 A 0.893 0.893 0 0 0 551.697 69.715 Q 551.73 69.491 551.623 69.338 A 0.529 0.529 0 0 0 551.48 69.2 A 0.667 0.667 0 0 0 551.372 69.141 Q 551.189 69.063 551.006 69.134 Z"
            id="20" vector-effect="non-scaling-stroke" />
        <path
            d="M 611.98 0 Q 614.58 0 615.28 2 Q 615.872 3.691 614.962 6.096 A 13.049 13.049 0 0 1 614.58 7 Q 613.879 7.526 613.639 6.901 A 1.415 1.415 0 0 1 613.58 6.7 Q 613.691 5.92 613.43 5.326 A 2.176 2.176 0 0 0 612.78 4.5 A 3.351 3.351 0 0 0 611.645 3.919 Q 611.17 3.776 610.602 3.726 A 7.186 7.186 0 0 0 609.98 3.7 A 11.389 11.389 0 0 0 605.698 4.57 Q 604.221 5.165 602.727 6.168 A 19.818 19.818 0 0 0 602.68 6.2 A 27.214 27.214 0 0 0 599.044 9.174 Q 597.463 10.699 595.92 12.6 A 45.954 45.954 0 0 0 595.48 13.15 A 67.031 67.031 0 0 0 591.817 18.316 A 89.204 89.204 0 0 0 588.68 23.6 A 113.372 113.372 0 0 0 584.011 33.163 A 131.117 131.117 0 0 0 582.58 36.6 A 163.689 163.689 0 0 0 577.671 50.773 A 178.33 178.33 0 0 0 577.53 51.25 Q 575.28 58.9 573.88 66.6 Q 573.513 68.709 573.651 70.355 A 9.749 9.749 0 0 0 573.68 70.65 Q 573.767 71.417 574.047 71.848 A 1.158 1.158 0 0 0 575.08 72.4 A 2.341 2.341 0 0 0 576.145 72.13 Q 576.5 71.951 576.854 71.652 A 5.476 5.476 0 0 0 577.28 71.25 Q 578.38 70.1 579.28 68.7 Q 579.453 68.527 579.738 68.653 A 1.008 1.008 0 0 1 579.83 68.7 A 0.636 0.636 0 0 1 579.976 68.812 Q 580.155 69 580.08 69.3 A 10.391 10.391 0 0 1 579.607 70.065 Q 579.362 70.429 579.061 70.82 A 20.035 20.035 0 0 1 578.68 71.3 Q 577.78 72.4 576.73 73.35 A 13.962 13.962 0 0 1 575.262 74.515 A 12.001 12.001 0 0 1 574.58 74.95 Q 573.779 75.424 573.084 75.552 A 2.767 2.767 0 0 1 572.58 75.6 A 3.069 3.069 0 0 1 571.641 75.466 Q 570.734 75.175 570.281 74.258 A 3.154 3.154 0 0 1 570.23 74.15 Q 569.58 72.7 569.78 70.4 A 24.508 24.508 0 0 1 570.012 68.157 A 20.877 20.877 0 0 1 570.18 67.2 Q 570.48 65.7 570.88 64 A 18.479 18.479 0 0 1 568.868 67.53 A 20.933 20.933 0 0 1 568.48 68.05 A 37.533 37.533 0 0 1 566.174 70.778 A 33.15 33.15 0 0 1 565.38 71.6 Q 563.78 73.2 562.23 74.25 Q 560.717 75.275 559.633 75.585 A 4.384 4.384 0 0 1 559.58 75.6 Q 557.92 75.6 556.403 74.217 A 7.647 7.647 0 0 1 556.33 74.15 A 4.372 4.372 0 0 1 555.23 72.442 Q 554.97 71.738 554.86 70.865 A 10.954 10.954 0 0 1 554.78 69.5 Q 554.78 65.7 556.08 62.15 A 21.388 21.388 0 0 1 558.683 57.133 A 19.528 19.528 0 0 1 559.63 55.9 Q 561.88 53.2 564.83 51.55 Q 567.78 49.9 571.18 49.9 A 6.896 6.896 0 0 1 572.156 49.966 A 5.084 5.084 0 0 1 573.13 50.2 Q 573.98 50.5 574.68 51 Q 576.48 45.6 579.03 39.7 Q 581.58 33.8 584.58 28.15 Q 587.58 22.5 590.93 17.4 A 76.646 76.646 0 0 1 594.762 12.058 A 60.907 60.907 0 0 1 597.83 8.45 A 43.277 43.277 0 0 1 601.281 5.084 A 31.799 31.799 0 0 1 604.98 2.3 A 16.494 16.494 0 0 1 607.817 0.833 Q 609.703 0.091 611.531 0.01 A 10.119 10.119 0 0 1 611.98 0 Z M 561.38 72.1 A 2.505 2.505 0 0 0 562.189 71.953 Q 562.89 71.713 563.73 71.083 A 10.551 10.551 0 0 0 564.03 70.85 A 16.164 16.164 0 0 0 565.531 69.463 Q 566.331 68.631 567.13 67.6 A 31.141 31.141 0 0 0 568.819 65.182 A 40.636 40.636 0 0 0 570.13 62.95 Q 571.58 60.3 572.58 57.5 Q 572.88 56.5 573.18 55.6 Q 573.48 54.7 573.68 53.8 A 3.031 3.031 0 0 0 573.039 52.689 A 2.944 2.944 0 0 0 572.18 52.05 Q 571.08 51.5 569.68 51.5 A 7.329 7.329 0 0 0 566.467 52.259 A 9.252 9.252 0 0 0 565.58 52.75 A 11.668 11.668 0 0 0 563.042 54.918 A 14.52 14.52 0 0 0 562.03 56.2 A 17.188 17.188 0 0 0 560.364 59.179 A 21.902 21.902 0 0 0 559.53 61.4 Q 558.58 64.4 558.58 68 A 8.292 8.292 0 0 0 558.647 69.094 Q 558.816 70.359 559.408 71.075 A 2.544 2.544 0 0 0 559.43 71.1 A 3.294 3.294 0 0 0 560.044 71.67 A 2.28 2.28 0 0 0 561.38 72.1 Z"
            id="21" vector-effect="non-scaling-stroke" />
        <path
            d="M 597.53 50.65 A 5.517 5.517 0 0 0 596.978 50.421 Q 595.789 50 594.18 50 A 12.068 12.068 0 0 0 594.142 50 Q 592.952 50.004 591.938 50.243 A 6.565 6.565 0 0 0 588.93 51.8 Q 586.98 53.6 586.98 56.2 Q 586.98 58 587.83 59.55 A 35.825 35.825 0 0 0 587.937 59.744 A 38.985 38.985 0 0 0 589.73 62.65 Q 590.78 64.2 591.68 65.85 Q 592.58 67.5 592.58 69.4 A 6.325 6.325 0 0 1 592.565 69.839 A 4.688 4.688 0 0 1 591.13 73 A 4.464 4.464 0 0 1 590.547 73.475 Q 589.76 74.013 588.714 74.239 A 7.764 7.764 0 0 1 587.08 74.4 A 6.26 6.26 0 0 1 586.358 74.36 A 4.903 4.903 0 0 1 584.13 73.55 A 3.437 3.437 0 0 1 582.959 72.199 A 4.473 4.473 0 0 1 582.58 71 Q 582.436 70.425 582.602 69.721 A 4.531 4.531 0 0 1 582.78 69.15 Q 583.18 68.1 583.98 67.3 Q 584.142 67.058 584.009 66.815 A 0.718 0.718 0 0 0 583.93 66.7 Q 583.68 66.4 583.38 66.6 Q 581.98 67.7 580.88 69.5 A 14.928 14.928 0 0 0 580.414 70.315 Q 580.002 71.097 579.857 71.659 A 2.206 2.206 0 0 0 579.78 72.2 Q 579.78 73.128 580.976 73.997 A 7.632 7.632 0 0 0 581.78 74.5 A 7.449 7.449 0 0 0 582.652 74.907 Q 584.419 75.6 586.88 75.6 Q 589.2 75.6 590.922 75.015 A 7.046 7.046 0 0 0 593.63 73.4 A 7.493 7.493 0 0 0 595.148 71.325 A 7.479 7.479 0 0 0 595.88 68 A 9.153 9.153 0 0 0 595.87 67.567 A 7.737 7.737 0 0 0 595.03 64.35 Q 594.18 62.7 593.13 61.25 Q 592.08 59.8 591.23 58.35 Q 590.38 56.9 590.38 55.3 Q 590.38 54.363 590.61 53.645 A 3.148 3.148 0 0 1 591.43 52.3 A 3.486 3.486 0 0 1 592.951 51.453 A 4.701 4.701 0 0 1 594.18 51.3 A 4.074 4.074 0 0 1 595.136 51.404 Q 596.018 51.618 596.508 52.267 A 2.838 2.838 0 0 1 596.98 53.3 A 3.302 3.302 0 0 1 597.066 53.694 Q 597.153 54.244 597.08 54.9 A 6.577 6.577 0 0 1 596.96 55.624 A 5.043 5.043 0 0 1 596.68 56.5 Q 596.599 56.743 596.812 56.887 A 0.704 0.704 0 0 0 596.93 56.95 A 1.017 1.017 0 0 0 596.982 56.971 Q 597.101 57.015 597.202 57.015 A 0.378 0.378 0 0 0 597.48 56.9 Q 597.792 56.338 598.085 55.58 A 17.986 17.986 0 0 0 598.43 54.6 Q 598.88 53.2 598.88 52.1 A 0.958 0.958 0 0 0 598.791 51.699 Q 598.533 51.133 597.53 50.65 Z"
            id="22" vector-effect="non-scaling-stroke" />
    </g>
</svg>